<?xml version="1.0" standalone="no"?>
<!DOCTYPE svg PUBLIC "-//W3C//DTD SVG 20010904//EN"
 "http://www.w3.org/TR/2001/REC-SVG-20010904/DTD/svg10.dtd">
<svg version="1.0" xmlns="http://www.w3.org/2000/svg"
 width="256.000000pt" height="256.000000pt" viewBox="0 0 256.000000 256.000000"
 preserveAspectRatio="xMidYMid meet">

<g transform="translate(0.000000,256.000000) scale(0.100000,-0.100000)"
fill="#000000" stroke="none">
<path d="M1750 2330 c-65 -14 -65 -12 -65 -197 0 -166 7 -267 25 -393 32 -220
36 -242 65 -360 8 -30 17 -110 21 -178 8 -147 21 -172 85 -172 73 0 97 58 85
202 -3 40 -6 83 -6 96 0 13 -8 45 -19 70 -22 56 -50 197 -42 210 3 5 90 12
193 15 223 7 242 12 246 74 3 35 -2 47 -24 69 l-26 27 -187 -5 c-102 -3 -197
-3 -211 1 -22 6 -26 15 -36 71 -6 36 -12 146 -13 245 -2 188 -8 217 -48 227
-10 2 -29 2 -43 -2z"/>
<path d="M1035 2309 c-187 -9 -446 -28 -456 -35 -8 -4 -261 -5 -319 -1 -22 2
-26 -3 -38 -61 -17 -79 -5 -121 37 -124 32 -2 21 -2 279 6 116 4 212 3 212 -1
-3 -70 -23 -205 -38 -259 -12 -38 -23 -89 -26 -114 -5 -49 -78 -224 -126 -301
-16 -27 -30 -53 -30 -57 0 -7 -63 -69 -161 -157 -67 -62 -76 -76 -68 -113 4
-18 13 -41 21 -50 8 -9 18 -24 21 -34 4 -12 15 -15 47 -12 55 5 94 34 122 91
12 25 45 64 72 87 82 68 135 126 158 170 11 22 23 43 27 46 3 3 24 40 46 83
22 42 43 77 47 77 4 0 13 -10 19 -22 21 -39 82 -99 164 -161 105 -80 151 -124
178 -170 25 -44 62 -67 106 -67 24 0 34 7 46 30 9 17 19 30 23 30 5 0 16 16
25 35 15 32 15 38 1 75 -16 39 -44 66 -164 156 -75 56 -92 67 -138 90 -18 9
-31 19 -28 21 3 3 -18 23 -47 45 -29 22 -64 52 -78 67 -29 30 -43 90 -28 128
10 26 12 78 9 221 -1 46 0 85 2 88 2 2 62 6 134 9 164 7 280 22 321 42 28 13
32 19 27 42 -6 24 -33 90 -41 100 -5 7 -195 7 -358 0z"/>
<path d="M1230 1029 c-25 -4 -70 -8 -101 -8 -76 -1 -206 -67 -248 -126 -8 -11
-43 -48 -77 -81 -132 -129 -205 -346 -144 -430 31 -42 347 -160 485 -181 41
-6 181 31 246 65 70 37 129 82 212 165 l67 67 0 108 c-1 59 -5 127 -11 152 -5
25 -12 65 -15 90 -5 38 -14 53 -57 93 -76 70 -119 88 -224 91 -48 1 -108 -1
-133 -5z m226 -213 c49 -51 58 -84 52 -181 -5 -75 -18 -93 -113 -158 -91 -63
-149 -87 -210 -87 -92 0 -208 20 -260 44 -27 13 -65 29 -82 36 -38 14 -40 21
-14 75 11 22 25 56 32 75 16 44 158 183 219 215 41 22 57 24 189 25 l144 0 43
-44z"/>
</g>
</svg>
